<mxfile host="app.diagrams.net" modified="2023-06-24T18:53:56.247Z" agent="Mozilla/5.0 (Windows NT 10.0; Win64; x64; rv:109.0) Gecko/20100101 Firefox/114.0" etag="H6JTZaJubaETp6_BcLKI" version="21.5.0" type="github">
  <diagram name="Page-1" id="KWzewiNtHVKbTdVzmJEv">
    <mxGraphModel dx="1922" dy="1242" grid="1" gridSize="10" guides="1" tooltips="1" connect="1" arrows="1" fold="1" page="1" pageScale="1" pageWidth="1100" pageHeight="850" math="0" shadow="0">
      <root>
        <mxCell id="0" />
        <mxCell id="1" parent="0" />
        <mxCell id="2xx0OkPRmbRjkBTVt8xA-1" value="&lt;font style=&quot;font-size: 24px;&quot;&gt;NEOLITHIC&lt;/font&gt;" style="swimlane;whiteSpace=wrap;html=1;" vertex="1" parent="1">
          <mxGeometry x="40" y="20" width="710" height="820" as="geometry" />
        </mxCell>
        <mxCell id="2xx0OkPRmbRjkBTVt8xA-2" value="&lt;font style=&quot;font-size: 24px;&quot;&gt;MEDIEVAL&lt;/font&gt;" style="swimlane;whiteSpace=wrap;html=1;" vertex="1" parent="1">
          <mxGeometry x="750" y="20" width="710" height="820" as="geometry" />
        </mxCell>
      </root>
    </mxGraphModel>
  </diagram>
</mxfile>
